<mxfile host="app.diagrams.net" modified="2024-01-13T03:34:25.501Z" agent="Mozilla/5.0 (Windows NT 10.0; Win64; x64) AppleWebKit/537.36 (KHTML, like Gecko) Chrome/120.0.0.0 Safari/537.36 Edg/120.0.0.0" etag="aYaFo4YQ2YUOAA9ssCwY" version="22.1.18" type="device">
  <diagram name="Page-1" id="n5WgXTd8yGn675kbO5Qd">
    <mxGraphModel dx="764" dy="438" grid="1" gridSize="10" guides="1" tooltips="1" connect="1" arrows="1" fold="1" page="1" pageScale="1" pageWidth="850" pageHeight="1100" math="0" shadow="0">
      <root>
        <mxCell id="0" />
        <mxCell id="1" parent="0" />
        <mxCell id="D1hGJuxZLGz6nwACRDz0-84" value="" style="endArrow=none;html=1;rounded=0;entryX=0;entryY=0.5;entryDx=0;entryDy=0;" edge="1" parent="1" target="D1hGJuxZLGz6nwACRDz0-4">
          <mxGeometry relative="1" as="geometry">
            <mxPoint x="120" y="219.5" as="sourcePoint" />
            <mxPoint x="280" y="220" as="targetPoint" />
          </mxGeometry>
        </mxCell>
        <mxCell id="D1hGJuxZLGz6nwACRDz0-85" value="M" style="resizable=0;html=1;whiteSpace=wrap;align=left;verticalAlign=bottom;" connectable="0" vertex="1" parent="D1hGJuxZLGz6nwACRDz0-84">
          <mxGeometry x="-1" relative="1" as="geometry" />
        </mxCell>
        <mxCell id="D1hGJuxZLGz6nwACRDz0-6" value="&lt;font style=&quot;font-size: 14px;&quot;&gt;Build&lt;/font&gt;" style="shape=rhombus;perimeter=rhombusPerimeter;whiteSpace=wrap;html=1;align=center;" vertex="1" parent="1">
          <mxGeometry x="180" y="190" width="80" height="60" as="geometry" />
        </mxCell>
        <mxCell id="D1hGJuxZLGz6nwACRDz0-53" value="" style="endArrow=none;html=1;rounded=0;entryX=0;entryY=0.5;entryDx=0;entryDy=0;" edge="1" parent="1" source="D1hGJuxZLGz6nwACRDz0-7" target="D1hGJuxZLGz6nwACRDz0-5">
          <mxGeometry relative="1" as="geometry">
            <mxPoint x="470" y="219.55" as="sourcePoint" />
            <mxPoint x="630" y="219.55" as="targetPoint" />
            <Array as="points">
              <mxPoint x="560" y="219.55" />
            </Array>
          </mxGeometry>
        </mxCell>
        <mxCell id="D1hGJuxZLGz6nwACRDz0-55" value="N" style="resizable=0;html=1;whiteSpace=wrap;align=right;verticalAlign=bottom;" connectable="0" vertex="1" parent="D1hGJuxZLGz6nwACRDz0-53">
          <mxGeometry x="1" relative="1" as="geometry" />
        </mxCell>
        <mxCell id="D1hGJuxZLGz6nwACRDz0-3" value="&lt;span style=&quot;font-size: 18px;&quot;&gt;&lt;b&gt;Product&lt;/b&gt;&lt;/span&gt;" style="whiteSpace=wrap;html=1;align=center;strokeColor=default;" vertex="1" parent="1">
          <mxGeometry x="20" y="200" width="100" height="40" as="geometry" />
        </mxCell>
        <mxCell id="D1hGJuxZLGz6nwACRDz0-4" value="&lt;font style=&quot;font-size: 18px;&quot;&gt;&lt;b&gt;Components&lt;/b&gt;&lt;/font&gt;" style="whiteSpace=wrap;html=1;align=center;" vertex="1" parent="1">
          <mxGeometry x="340" y="200" width="130" height="40" as="geometry" />
        </mxCell>
        <mxCell id="D1hGJuxZLGz6nwACRDz0-5" value="&lt;font style=&quot;font-size: 18px;&quot;&gt;&lt;b&gt;Suppliers&lt;/b&gt;&lt;/font&gt;" style="whiteSpace=wrap;html=1;align=center;" vertex="1" parent="1">
          <mxGeometry x="710" y="200" width="100" height="40" as="geometry" />
        </mxCell>
        <mxCell id="D1hGJuxZLGz6nwACRDz0-101" value="" style="edgeStyle=orthogonalEdgeStyle;rounded=0;orthogonalLoop=1;jettySize=auto;html=1;endArrow=none;endFill=0;" edge="1" parent="1" source="D1hGJuxZLGz6nwACRDz0-35" target="D1hGJuxZLGz6nwACRDz0-3">
          <mxGeometry relative="1" as="geometry" />
        </mxCell>
        <mxCell id="D1hGJuxZLGz6nwACRDz0-35" value="&lt;font size=&quot;3&quot;&gt;product_id&lt;/font&gt;" style="ellipse;whiteSpace=wrap;html=1;align=center;" vertex="1" parent="1">
          <mxGeometry x="25" y="60" width="90" height="40" as="geometry" />
        </mxCell>
        <mxCell id="D1hGJuxZLGz6nwACRDz0-37" value="Attribute" style="ellipse;whiteSpace=wrap;html=1;align=center;fillColor=default;" vertex="1" parent="1">
          <mxGeometry x="355" y="70" width="100" height="40" as="geometry" />
        </mxCell>
        <mxCell id="D1hGJuxZLGz6nwACRDz0-74" value="" style="endArrow=none;html=1;rounded=0;entryX=0;entryY=0.5;entryDx=0;entryDy=0;" edge="1" parent="1" target="D1hGJuxZLGz6nwACRDz0-7">
          <mxGeometry relative="1" as="geometry">
            <mxPoint x="470" y="219.55" as="sourcePoint" />
            <mxPoint x="720" y="220" as="targetPoint" />
            <Array as="points" />
          </mxGeometry>
        </mxCell>
        <mxCell id="D1hGJuxZLGz6nwACRDz0-75" value="M" style="resizable=0;html=1;whiteSpace=wrap;align=left;verticalAlign=bottom;" connectable="0" vertex="1" parent="D1hGJuxZLGz6nwACRDz0-74">
          <mxGeometry x="-1" relative="1" as="geometry" />
        </mxCell>
        <mxCell id="D1hGJuxZLGz6nwACRDz0-7" value="&lt;font style=&quot;font-size: 14px;&quot;&gt;supply&lt;/font&gt;" style="shape=rhombus;perimeter=rhombusPerimeter;whiteSpace=wrap;html=1;align=center;" vertex="1" parent="1">
          <mxGeometry x="540" y="190" width="90" height="60" as="geometry" />
        </mxCell>
      </root>
    </mxGraphModel>
  </diagram>
</mxfile>
